<?xml version="1.0" encoding="utf-8"?>
<!-- Generator: Adobe Illustrator 24.0.1, SVG Export Plug-In . SVG Version: 6.00 Build 0)  -->
<svg version="1.1" id="Camada_1" xmlns="http://www.w3.org/2000/svg" xmlns:xlink="http://www.w3.org/1999/xlink" x="0px" y="0px"
	 viewBox="0 0 400 400" style="enable-background:new 0 0 400 400;" xml:space="preserve">
<style type="text/css">
	.st0{fill:#281D16;}
	.st1{fill:#369837;}
	.st2{fill:#C91517;}
</style>
<g>
	<g>
		<g>
			<path class="st0" d="M254.56,379.18c1.29-1.67,3.22-2.51,5.78-2.51c2.58,0,4.53,0.85,5.86,2.54c1.32,1.7,1.98,4.18,1.98,7.45
				c0,3.3-0.66,5.8-1.98,7.51c-1.33,1.72-3.27,2.57-5.82,2.57c-2.55,0-4.48-0.86-5.8-2.58c-1.32-1.72-1.97-4.22-1.97-7.5
				C252.61,383.34,253.25,380.85,254.56,379.18 M269.04,376.95c-2.12-2.39-4.99-3.59-8.59-3.59c-3.73,0-6.64,1.17-8.74,3.5
				c-2.1,2.34-3.15,5.6-3.15,9.79c0,2.7,0.49,5.06,1.46,7.08c0.97,2.01,2.35,3.56,4.13,4.64c1.79,1.08,3.83,1.62,6.13,1.62
				c3.73,0,6.65-1.18,8.76-3.53c2.11-2.35,3.17-5.62,3.17-9.81C272.22,382.57,271.16,379.34,269.04,376.95 M241.99,399.53v-16.77
				c0-3.28-0.79-5.67-2.35-7.16c-1.56-1.49-3.9-2.24-7-2.24c-1.77,0-3.37,0.35-4.81,1.05c-1.44,0.69-2.56,1.67-3.36,2.94h-0.19
				l-0.64-3.52h-3.17v25.7h3.9v-13.48c0-3.35,0.62-5.75,1.87-7.2c1.25-1.45,3.23-2.18,5.92-2.18c2.03,0,3.53,0.51,4.48,1.55
				c0.96,1.03,1.44,2.59,1.44,4.69v16.63H241.99z M197.16,395.69c-0.85-0.74-1.28-1.81-1.28-3.22c0-1.79,0.68-3.12,2.05-3.97
				c1.37-0.85,3.61-1.33,6.71-1.44l3.9-0.17v2.33c0,2.39-0.69,4.25-2.08,5.58c-1.39,1.33-3.29,1.99-5.72,1.99
				C199.2,396.78,198.01,396.42,197.16,395.69 M212.44,399.53v-17.54c0-3-0.74-5.18-2.22-6.54c-1.48-1.36-3.75-2.04-6.83-2.04
				c-1.52,0-3.03,0.2-4.54,0.59c-1.52,0.39-2.91,0.93-4.17,1.62l1.2,2.98c2.71-1.32,5.13-1.97,7.28-1.97c1.91,0,3.3,0.48,4.16,1.44
				c0.87,0.96,1.31,2.45,1.31,4.47v1.59l-4.37,0.14c-8.32,0.25-12.47,2.97-12.47,8.16c0,2.42,0.72,4.29,2.17,5.6
				c1.44,1.31,3.45,1.97,6,1.97c1.91,0,3.5-0.29,4.78-0.86c1.28-0.57,2.56-1.66,3.84-3.27h0.19l0.78,3.66H212.44z M181.87,368.82
				c0.44,0.43,0.99,0.65,1.65,0.65c0.63,0,1.16-0.22,1.62-0.65c0.45-0.43,0.68-1.08,0.68-1.95c0-0.88-0.23-1.53-0.68-1.95
				c-0.46-0.42-0.99-0.64-1.62-0.64c-0.66,0-1.2,0.21-1.65,0.62c-0.44,0.41-0.66,1.06-0.66,1.96
				C181.22,367.74,181.43,368.39,181.87,368.82 M185.45,373.83h-3.9v25.7h3.9V373.83z M158.24,395.69
				c-0.86-0.74-1.28-1.81-1.28-3.22c0-1.79,0.69-3.12,2.05-3.97c1.37-0.85,3.61-1.33,6.71-1.44l3.9-0.17v2.33
				c0,2.39-0.69,4.25-2.08,5.58c-1.39,1.33-3.29,1.99-5.72,1.99C160.28,396.78,159.08,396.42,158.24,395.69 M173.51,399.53v-17.54
				c0-3-0.74-5.18-2.22-6.54c-1.47-1.36-3.75-2.04-6.82-2.04c-1.52,0-3.04,0.2-4.54,0.59c-1.51,0.39-2.9,0.93-4.17,1.62l1.2,2.98
				c2.71-1.32,5.13-1.97,7.28-1.97c1.91,0,3.3,0.48,4.17,1.44c0.87,0.96,1.31,2.45,1.31,4.47v1.59l-4.37,0.14
				c-8.31,0.25-12.47,2.97-12.47,8.16c0,2.42,0.72,4.29,2.17,5.6c1.45,1.31,3.45,1.97,6,1.97c1.92,0,3.5-0.29,4.78-0.86
				c1.28-0.57,2.56-1.66,3.84-3.27h0.19l0.78,3.66H173.51z M135.04,383.3c2.92,0,5.11,0.5,6.54,1.5c1.44,1,2.15,2.56,2.15,4.69
				c0,2.28-0.7,3.96-2.11,5.03c-1.4,1.07-3.48,1.61-6.26,1.61h-7.16V383.3H135.04z M128.2,368.69h5.87c3,0,5.2,0.42,6.58,1.28
				c1.38,0.85,2.07,2.24,2.07,4.16c0,2.1-0.62,3.58-1.86,4.47c-1.24,0.88-3.26,1.32-6.08,1.32h-6.58V368.69z M124.2,399.53h11.98
				c3.73,0,6.63-0.86,8.71-2.58c2.07-1.72,3.11-4.11,3.11-7.17c0-4.58-2.61-7.32-7.83-8.21v-0.24c2.18-0.39,3.83-1.25,4.96-2.57
				c1.14-1.32,1.71-2.99,1.71-5.03c0-2.94-1.02-5.09-3.05-6.45c-2.03-1.36-5.34-2.04-9.89-2.04h-9.71V399.53z"/>
			<path class="st1" d="M223.19,43.51c0,2.46-1.99,4.44-4.44,4.44h-36.78c-2.45,0-4.44-1.98-4.44-4.44V6.73
				c0-2.45,1.98-4.45,4.44-4.45h36.78c2.45,0,4.44,2,4.44,4.45V43.51z"/>
			<path class="st1" d="M277.98,43.51c0,2.46-1.99,4.44-4.44,4.44h-36.78c-2.46,0-4.45-1.98-4.45-4.44V6.73
				c0-2.45,1.99-4.45,4.45-4.45h36.78c2.45,0,4.44,2,4.44,4.45V43.51z"/>
			<path class="st1" d="M277.98,153.1c0,2.45-1.99,4.45-4.44,4.45h-36.78c-2.46,0-4.45-1.99-4.45-4.45v-36.77
				c0-2.46,1.99-4.45,4.45-4.45h36.78c2.45,0,4.44,1.99,4.44,4.45V153.1z"/>
			<path class="st1" d="M168.38,98.27c0,2.46-1.99,4.45-4.44,4.45h-36.78c-2.46,0-4.44-1.98-4.44-4.45V61.49
				c0-2.45,1.98-4.44,4.44-4.44h36.78c2.45,0,4.44,1.99,4.44,4.44V98.27z"/>
			<path class="st1" d="M223.19,98.27c0,2.46-1.99,4.45-4.44,4.45h-36.78c-2.45,0-4.44-1.98-4.44-4.45V61.49
				c0-2.45,1.98-4.44,4.44-4.44h36.78c2.45,0,4.44,1.99,4.44,4.44V98.27z"/>
			<path class="st1" d="M168.38,153.1c0,2.45-1.99,4.45-4.44,4.45h-36.78c-2.46,0-4.44-1.99-4.44-4.45v-36.77
				c0-2.46,1.98-4.45,4.44-4.45h36.78c2.45,0,4.44,1.99,4.44,4.45V153.1z"/>
			<path class="st1" d="M223.19,153.1c0,2.45-1.99,4.45-4.44,4.45h-36.78c-2.45,0-4.44-1.99-4.44-4.45v-36.77
				c0-2.46,1.98-4.45,4.44-4.45h36.78c2.45,0,4.44,1.99,4.44,4.45V153.1z"/>
			<path class="st1" d="M168.38,207.95c0,2.46-1.99,4.45-4.44,4.45h-36.78c-2.46,0-4.44-1.99-4.44-4.45v-36.77
				c0-2.45,1.98-4.45,4.44-4.45h36.78c2.45,0,4.44,1.99,4.44,4.45V207.95z"/>
			<path class="st1" d="M223.19,207.95c0,2.46-1.99,4.45-4.44,4.45h-36.78c-2.45,0-4.44-1.99-4.44-4.45v-36.77
				c0-2.45,1.98-4.45,4.44-4.45h36.78c2.45,0,4.44,1.99,4.44,4.45V207.95z"/>
			<path class="st2" d="M170.67,25.12c0,13.87-11.24,25.12-25.12,25.12c-13.87,0-25.11-11.25-25.11-25.12
				C120.45,11.25,131.69,0,145.56,0C159.43,0,170.67,11.25,170.67,25.12"/>
			<rect x="34.95" y="244.35" class="st0" width="9.65" height="45.43"/>
			<path class="st0" d="M96.49,244.35H87.8v21.5c0,2.45,0.15,6.62,0.47,12.52h-0.22l-19.77-34.03H56.11v45.43h8.62V268.4
				c0-2.59-0.2-6.92-0.59-12.99h0.28l19.8,34.37h12.27V244.35z"/>
			<path class="st0" d="M132.57,269.66c-1.58-2.04-4.49-4.07-8.74-6.11c-3.22-1.53-5.26-2.6-6.12-3.19
				c-0.86-0.59-1.49-1.2-1.89-1.83c-0.39-0.63-0.59-1.37-0.59-2.22c0-1.37,0.49-2.48,1.46-3.33c0.98-0.85,2.37-1.27,4.2-1.27
				c1.54,0,3.1,0.2,4.69,0.59c1.59,0.39,3.6,1.09,6.02,2.08l3.11-7.49c-2.35-1.01-4.59-1.8-6.74-2.36c-2.15-0.56-4.4-0.84-6.77-0.84
				c-4.82,0-8.59,1.15-11.31,3.45c-2.73,2.3-4.1,5.46-4.1,9.48c0,2.14,0.41,4,1.25,5.59c0.83,1.6,1.94,3,3.33,4.2
				c1.39,1.2,3.48,2.45,6.26,3.76c2.97,1.41,4.94,2.44,5.9,3.08c0.97,0.64,1.7,1.31,2.2,2c0.49,0.7,0.74,1.49,0.74,2.38
				c0,1.6-0.57,2.8-1.7,3.61c-1.12,0.81-2.75,1.21-4.87,1.21c-1.76,0-3.71-0.28-5.84-0.84c-2.12-0.56-4.73-1.53-7.8-2.89v8.95
				c3.74,1.82,8.03,2.74,12.89,2.74c5.28,0,9.39-1.18,12.34-3.54c2.95-2.36,4.44-5.59,4.44-9.7
				C134.94,274.2,134.14,271.7,132.57,269.66"/>
			<path class="st0" d="M218.91,252.36h12.36v-8.02H196.9v8.02h12.36v37.41h9.65V252.36z M189.89,244.35h-9.65v45.43h9.65V244.35z
				 M160.88,252.36h12.36v-8.02h-34.37v8.02h12.36v37.41h9.65V252.36z"/>
			<path class="st0" d="M265.87,244.35v27.75c0,3.52-0.71,6.1-2.13,7.75c-1.42,1.65-3.71,2.47-6.86,2.47c-3.26,0-5.59-0.82-7-2.45
				c-1.41-1.64-2.12-4.21-2.12-7.71v-27.81h-9.62v29.27c0,5.2,1.62,9.29,4.86,12.29c3.24,3,7.78,4.49,13.63,4.49
				c3.88,0,7.24-0.67,10.09-2.02c2.84-1.35,5.02-3.29,6.52-5.81c1.51-2.53,2.26-5.47,2.26-8.83v-29.4H265.87z"/>
			<polygon class="st0" points="304.33,252.36 316.69,252.36 316.69,244.35 282.32,244.35 282.32,252.36 294.67,252.36 
				294.67,289.78 304.33,289.78 			"/>
			<path class="st0" d="M334.76,255.52c1.95-2.58,4.84-3.87,8.68-3.87c7.66,0,11.48,5.12,11.48,15.35
				c0,10.21-3.85,15.32-11.54,15.32c-3.84,0-6.73-1.28-8.66-3.85c-1.93-2.57-2.89-6.39-2.89-11.47
				C331.84,261.93,332.81,258.1,334.76,255.52 M359.5,249.66c-3.71-4.02-9.06-6.03-16.05-6.03c-6.99,0-12.36,2-16.11,5.98
				c-3.75,3.99-5.62,9.76-5.62,17.32c0,7.57,1.87,13.36,5.61,17.4c3.74,4.04,9.09,6.06,16.07,6.06c6.97,0,12.33-2.02,16.06-6.06
				c3.74-4.04,5.61-9.82,5.61-17.34C365.05,259.46,363.2,253.68,359.5,249.66"/>
			<polygon class="st0" points="76.12,326.42 91.56,326.42 91.56,318.56 76.12,318.56 76.12,306.85 92.71,306.85 92.71,298.95 
				66.63,298.95 66.63,344.38 76.12,344.38 			"/>
			<path class="st0" d="M235.15,326.95l10.87,17.43h10.71c-2.07-2.98-6.54-9.58-13.39-19.8c2.69-1.18,4.79-2.81,6.25-4.9
				c1.48-2.08,2.21-4.46,2.21-7.13c0-4.58-1.48-7.99-4.45-10.24c-2.97-2.25-7.55-3.37-13.73-3.37h-13.26v45.44h9.65v-17.43H235.15z
				 M230.01,306.84h2.92c3.11,0,5.42,0.46,6.89,1.37c1.48,0.91,2.23,2.44,2.23,4.6c0,2.18-0.73,3.77-2.18,4.79
				c-1.45,1.01-3.7,1.52-6.75,1.52h-3.11V306.84z M210.87,336.43h-16.57v-11.71h15.41v-7.89h-15.41v-9.98h16.57v-7.89h-26.22v45.44
				h26.22V336.43z M151.25,336.43h-4.14v-29.58h5.14c8.63,0,12.95,4.88,12.95,14.64C165.2,331.45,160.55,336.43,151.25,336.43
				 M169.06,304.83c-4.11-3.92-9.88-5.88-17.31-5.88h-14.29v45.44h12.89c8.05,0,14.21-1.99,18.48-5.97
				c4.26-3.98,6.39-9.7,6.39-17.18C175.22,314.21,173.17,308.74,169.06,304.83 M127.97,336.43h-16.57v-11.71h15.41v-7.89h-15.41
				v-9.98h16.57v-7.89h-26.21v45.44h26.21V336.43z"/>
			<path class="st0" d="M273.07,325.49c3.23-10.46,5.2-17.02,5.88-19.67c0.16,0.75,0.44,1.77,0.82,3.05
				c0.38,1.29,2.1,6.83,5.15,16.63H273.07z M300.93,344.39l-16.13-45.62h-11.8l-16.06,45.62h10.4l3.3-10.81h16.6l3.3,10.81H300.93z"
				/>
			<polygon class="st0" points="334.9,344.39 334.9,336.43 316.44,336.43 316.44,298.95 306.79,298.95 306.79,344.39 			"/>
		</g>
	</g>
</g>
</svg>
